<mxfile host="65bd71144e">
    <diagram id="X3B5c8TDgq4J66kD6RrP" name="Page-1">
        <mxGraphModel dx="640" dy="1002" grid="1" gridSize="10" guides="1" tooltips="1" connect="1" arrows="1" fold="1" page="1" pageScale="1" pageWidth="850" pageHeight="1100" math="0" shadow="0">
            <root>
                <mxCell id="0"/>
                <mxCell id="1" parent="0"/>
                <mxCell id="2" value="" style="ellipse;whiteSpace=wrap;html=1;aspect=fixed;rounded=0;sketch=1;fillColor=#666666;strokeWidth=1;gradientColor=none;strokeColor=default;shadow=1;fillStyle=solid;" parent="1" vertex="1">
                    <mxGeometry x="13" y="138" width="825" height="825" as="geometry"/>
                </mxCell>
                <mxCell id="3" value="" style="ellipse;whiteSpace=wrap;html=1;aspect=fixed;rounded=0;sketch=1;fillColor=#333333;strokeColor=default;strokeWidth=2;shadow=1;fillStyle=solid;" parent="1" vertex="1">
                    <mxGeometry x="148" y="273" width="555" height="555" as="geometry"/>
                </mxCell>
                <mxCell id="4" value="" style="ellipse;whiteSpace=wrap;html=1;aspect=fixed;rounded=0;sketch=1;fillColor=#000000;strokeWidth=3;fillStyle=solid;shadow=1;" parent="1" vertex="1">
                    <mxGeometry x="268" y="393" width="315" height="315" as="geometry"/>
                </mxCell>
                <mxCell id="15" value="" style="endArrow=classic;html=1;sketch=1;strokeWidth=2;strokeColor=#FFFFFF;shadow=1;curved=1;targetPerimeterSpacing=0;sourcePerimeterSpacing=0;" parent="1" edge="1">
                    <mxGeometry width="50" height="50" relative="1" as="geometry">
                        <mxPoint x="560" y="650" as="sourcePoint"/>
                        <mxPoint x="520" y="620" as="targetPoint"/>
                    </mxGeometry>
                </mxCell>
                <mxCell id="16" value="" style="endArrow=classic;html=1;sketch=1;strokeWidth=2;strokeColor=#FFFFFF;shadow=1;" parent="1" edge="1">
                    <mxGeometry width="50" height="50" relative="1" as="geometry">
                        <mxPoint x="440" y="860" as="sourcePoint"/>
                        <mxPoint x="440" y="800" as="targetPoint"/>
                    </mxGeometry>
                </mxCell>
                <mxCell id="18" value="" style="endArrow=classic;html=1;sketch=1;strokeWidth=2;strokeColor=#FFFFFF;shadow=1;fontColor=#FFFFFF;" parent="1" edge="1">
                    <mxGeometry width="50" height="50" relative="1" as="geometry">
                        <mxPoint x="200" y="770" as="sourcePoint"/>
                        <mxPoint x="360" y="640" as="targetPoint"/>
                    </mxGeometry>
                </mxCell>
                <mxCell id="19" value="&lt;font style=&quot;font-size: 48px&quot;&gt;Domain&lt;/font&gt;" style="text;html=1;resizable=0;autosize=1;align=center;verticalAlign=middle;points=[];fillColor=none;strokeColor=none;rounded=0;sketch=1;shadow=1;fontColor=#FFFFFF;" parent="1" vertex="1">
                    <mxGeometry x="335" y="520" width="180" height="30" as="geometry"/>
                </mxCell>
                <mxCell id="20" value="&lt;font style=&quot;font-size: 48px&quot;&gt;Usecase&lt;/font&gt;" style="text;html=1;resizable=0;autosize=1;align=center;verticalAlign=middle;points=[];fillColor=none;strokeColor=none;rounded=0;sketch=1;fontColor=#FFFFFF;" parent="1" vertex="1">
                    <mxGeometry x="325.5" y="330" width="200" height="30" as="geometry"/>
                </mxCell>
                <mxCell id="21" value="&lt;font style=&quot;font-size: 48px&quot;&gt;Port&lt;/font&gt;" style="text;html=1;resizable=0;autosize=1;align=center;verticalAlign=middle;points=[];fillColor=none;strokeColor=none;rounded=0;sketch=1;labelBackgroundColor=none;fontColor=#FFFFFF;" parent="1" vertex="1">
                    <mxGeometry x="375" y="180" width="100" height="30" as="geometry"/>
                </mxCell>
            </root>
        </mxGraphModel>
    </diagram>
</mxfile>